# xmcd
# 
# Track frame offsets:
#     150
#     15719
#     28636
#     43462
#     55602
#     70758
#     86998
#     105387
#     122391
#     137014
#     152505
# 
# Disc length: 2235
# 
# Revision: 5
# Processed by: cddbd v1.5.2PL0 Copyright (c) Steve Scherf et al.
# Submitted via: fre:ac v1.1beta1pre3
# 
DISCID=8808b90b
DTITLE=Easton Corbin - Easton Corbin
DYEAR=2010
DGENRE=Country
TTITLE0=Roll With It
TTITLE1=A little More Country Than That
TTITLE2=This Far From Memphis
TTITLE3=The Way Love Looks
TTITLE4=Someday When I'm Old
TTITLE5=Don't Ask Me 'Bout A Woman
TTITLE6=I Can't Love You Back
TTITLE7=A Lot To Learn About Livin'
TTITLE8=Let Alone You
TTITLE9=That'll Make You Wanna Drink
TTITLE10=Leavin' A Lonely Town
EXTD=
EXTT0=
EXTT1=
EXTT2=
EXTT3=
EXTT4=
EXTT5=
EXTT6=
EXTT7=
EXTT8=
EXTT9=
EXTT10=
PLAYORDER=
